<?xml version="1.0" encoding="utf-8"?>
<!-- Generator: Adobe Illustrator 16.0.4, SVG Export Plug-In . SVG Version: 6.00 Build 0)  -->
<!DOCTYPE svg PUBLIC "-//W3C//DTD SVG 1.1//EN" "http://www.w3.org/Graphics/SVG/1.1/DTD/svg11.dtd">
<svg version="1.1" id="Calque_1" xmlns="http://www.w3.org/2000/svg" xmlns:xlink="http://www.w3.org/1999/xlink" x="0px" y="0px"
	 width="37px" height="37px" viewBox="0 0 37 37" enable-background="new 0 0 37 37" xml:space="preserve">
<g>
	<path fill="#FF0000" d="M7.386,34.029l0.542-0.875c-0.211-0.13-0.417-0.265-0.622-0.402l-0.576,0.849
		C6.944,33.747,7.164,33.892,7.386,34.029z"/>
	<path fill="#FF0000" d="M4.308,31.612c0.188,0.182,0.378,0.36,0.572,0.534l0.675-0.761c-0.184-0.163-0.365-0.332-0.542-0.502
		L4.308,31.612z"/>
	<path fill="#FF0000" d="M2.321,29.244c0.154,0.212,0.313,0.418,0.476,0.623l0.784-0.628c-0.154-0.191-0.305-0.387-0.452-0.586
		L2.321,29.244z"/>
	<path fill="#FF0000" d="M14.717,36.671c0.259,0.035,0.519,0.064,0.781,0.088l0.091-1.071c-0.247-0.021-0.492-0.048-0.737-0.077
		L14.717,36.671z"/>
	<path fill="#FF0000" d="M33.268,9.461c-0.128-0.23-0.259-0.458-0.397-0.682c-0.137-0.225-0.279-0.446-0.426-0.665
		c-0.146-0.218-0.3-0.432-0.457-0.643l-0.94,0.688c-0.146-0.199-0.296-0.393-0.45-0.586l0.907-0.727
		c-0.165-0.205-0.335-0.405-0.507-0.603c-0.175-0.197-0.354-0.39-0.534-0.58l-0.839,0.797c0.17,0.178,0.335,0.36,0.498,0.546
		l-0.835,0.729c0.151,0.174,0.3,0.351,0.443,0.531l-0.81,0.648c-0.135-0.169-0.274-0.334-0.415-0.497l0.781-0.682
		c-0.151-0.173-0.308-0.344-0.467-0.512l0.804-0.764c-0.169-0.179-0.343-0.354-0.521-0.526l-0.769,0.799
		c-0.167-0.161-0.336-0.318-0.508-0.472l-0.689,0.777c-0.161-0.144-0.324-0.285-0.491-0.421L27.3,5.813
		c0.179,0.145,0.354,0.296,0.527,0.449l0.734-0.829l0.764-0.86c-0.198-0.174-0.398-0.344-0.603-0.509L28,4.953
		c-0.191-0.157-0.385-0.309-0.582-0.457l-0.662,0.889c-0.185-0.138-0.373-0.271-0.563-0.401l0.624-0.917
		c0.203,0.138,0.403,0.28,0.602,0.428L28.1,3.581c-0.21-0.156-0.423-0.31-0.643-0.457c-0.217-0.147-0.439-0.288-0.662-0.425
		l-0.6,0.967c-0.209-0.13-0.422-0.254-0.636-0.376l0.556-0.989c-0.229-0.126-0.463-0.249-0.697-0.367
		c-0.234-0.118-0.472-0.23-0.712-0.338l-0.465,1.024c0.225,0.102,0.446,0.209,0.665,0.32l-0.501,0.99
		c0.206,0.105,0.409,0.213,0.61,0.326c0.201,0.113,0.4,0.23,0.596,0.352l-0.545,0.882c0.182,0.115,0.363,0.231,0.542,0.352
		c0.179,0.122,0.354,0.247,0.527,0.376l-0.579,0.779c0.162,0.121,0.32,0.246,0.477,0.374L25.46,8.078l-0.538,0.66
		c-0.137-0.112-0.275-0.221-0.418-0.328c-0.141-0.106-0.286-0.208-0.433-0.308l0.479-0.704c0.156,0.107,0.311,0.215,0.463,0.329
		l0.543-0.729c-0.161-0.121-0.327-0.238-0.495-0.352c-0.166-0.114-0.336-0.222-0.507-0.33l0.512-0.826
		c-0.185-0.114-0.371-0.224-0.559-0.33c-0.188-0.105-0.38-0.208-0.57-0.305l0.468-0.925C24.2,3.826,23.993,3.726,23.782,3.63
		l0.459-1.009c-0.226-0.102-0.45-0.201-0.68-0.293l-0.415,1.028l-0.389,0.963c0.2,0.081,0.398,0.167,0.595,0.256L22.95,5.459
		c-0.183-0.084-0.369-0.164-0.557-0.241l-0.341,0.844c0.176,0.071,0.349,0.146,0.521,0.225c0.172,0.078,0.343,0.16,0.511,0.246
		l0.412-0.811c0.18,0.091,0.359,0.187,0.533,0.286l-0.444,0.792c-0.165-0.093-0.332-0.183-0.501-0.268l-0.386,0.759
		c-0.157-0.081-0.316-0.157-0.477-0.23l-0.33,0.725c-0.151-0.069-0.303-0.135-0.457-0.197l0.299-0.739
		c-0.164-0.067-0.33-0.13-0.497-0.19l0.286-0.802c-0.178-0.063-0.357-0.125-0.539-0.181c-0.18-0.056-0.363-0.107-0.546-0.155
		l-0.216,0.823c0.172,0.046,0.343,0.094,0.512,0.146L20.5,7.255c0.158,0.048,0.316,0.103,0.472,0.158l-0.25,0.703
		c0.146,0.052,0.291,0.108,0.434,0.166l-0.387,0.958c0.132,0.052,0.262,0.105,0.39,0.163c0.129,0.058,0.257,0.117,0.381,0.179
		l0.463-0.912c0.139,0.069,0.276,0.144,0.411,0.219l-0.499,0.889c0.123,0.068,0.245,0.138,0.366,0.211
		c0.119,0.073,0.237,0.149,0.354,0.228c0.118,0.079,0.231,0.16,0.346,0.243c0.113,0.083,0.225,0.169,0.335,0.257
		c0.11,0.088,0.218,0.18,0.322,0.272c0.107,0.093,0.211,0.188,0.312,0.285c0.104,0.097,0.203,0.197,0.301,0.298
		s0.193,0.205,0.286,0.31l0.749-0.653c0.103,0.117,0.202,0.236,0.298,0.357l-0.772,0.618c0.088,0.109,0.176,0.22,0.26,0.335
		c0.084,0.112,0.166,0.227,0.246,0.344c0.079,0.117,0.155,0.236,0.229,0.356c0.073,0.12,0.145,0.242,0.213,0.365
		c0.795,1.421,1.25,3.059,1.25,4.803c0,5.442-4.411,9.854-9.853,9.854c-0.03,0-0.059-0.002-0.088-0.002
		c-0.141-0.002-0.281-0.004-0.419-0.012c-0.141-0.007-0.281-0.019-0.42-0.031c-0.14-0.014-0.279-0.03-0.417-0.049l-0.139,1.072
		c-0.155-0.019-0.308-0.041-0.461-0.068l-0.127,0.735l-0.135,0.786c-0.175-0.03-0.35-0.062-0.523-0.099l-0.181,0.831
		c-0.184-0.04-0.371-0.082-0.553-0.129l-0.23,0.879l-0.247,0.941c0.209,0.055,0.421,0.103,0.632,0.148l0.207-0.95
		c0.197,0.042,0.396,0.079,0.596,0.113c0.198,0.033,0.399,0.062,0.602,0.088l0.115-0.902c0.188,0.025,0.376,0.043,0.565,0.061
		l-0.078,0.905c0.201,0.018,0.403,0.031,0.606,0.04L16.42,33.59c-0.217-0.009-0.433-0.024-0.647-0.043l0.083-0.969
		c-0.203-0.016-0.404-0.037-0.603-0.063l-0.124,0.965l-0.134,1.03c0.229,0.027,0.458,0.053,0.69,0.073l-0.095,1.104
		c0.245,0.021,0.491,0.036,0.739,0.048l-0.046,1.079c0.262,0.012,0.523,0.019,0.786,0.02c0.029,0,0.058,0.003,0.088,0.003
		c10.177,0,18.428-8.252,18.428-18.431C35.584,15.159,34.741,12.11,33.268,9.461z M26.469,11.514l0.644-0.472
		c0.104,0.143,0.207,0.288,0.306,0.434l-0.663,0.443C26.663,11.782,26.567,11.646,26.469,11.514z M26.447,10.214l0.642-0.559
		c0.123,0.142,0.245,0.287,0.362,0.434l-0.663,0.532C26.677,10.483,26.564,10.348,26.447,10.214z M25.162,10.018l0.554-0.573
		c0.127,0.123,0.251,0.249,0.374,0.377l-0.578,0.548C25.397,10.25,25.281,10.133,25.162,10.018z M30.362,11.064l-0.851,0.469
		c-0.099-0.177-0.198-0.353-0.304-0.525l0.83-0.505C30.151,10.688,30.257,10.874,30.362,11.064z M30.153,8.814
		c0.136,0.187,0.27,0.375,0.398,0.567l-0.863,0.576c-0.121-0.18-0.245-0.356-0.373-0.531L30.153,8.814z M27.612,7.479
		c0.156,0.15,0.308,0.303,0.456,0.46l-0.703,0.669c-0.14-0.146-0.281-0.291-0.426-0.431L27.612,7.479z M23.168,7.543
		c0.155,0.087,0.308,0.177,0.459,0.271l-0.421,0.676c-0.14-0.087-0.282-0.17-0.429-0.252L23.168,7.543z M23.204,9.378l0.419-0.617
		c0.137,0.094,0.272,0.189,0.405,0.288l-0.445,0.599C23.458,9.556,23.331,9.466,23.204,9.378z M15.477,30.77l0.102-0.791
		c0.164,0.021,0.329,0.037,0.495,0.052l0.063-0.742c0.155,0.013,0.31,0.022,0.465,0.029l-0.031,0.745
		c0.161,0.008,0.322,0.013,0.485,0.013c0.004,0,0.008,0,0.013,0v0.796c-0.004,0-0.009,0-0.013,0c-0.174,0-0.347-0.005-0.52-0.012
		l0.035-0.797c-0.167-0.006-0.333-0.018-0.497-0.032l-0.068,0.794C15.828,30.811,15.652,30.791,15.477,30.77z"/>
	<path fill="#FF0000" d="M10.174,35.463c0.242,0.1,0.485,0.195,0.732,0.285l0.352-0.991c-0.233-0.083-0.464-0.172-0.692-0.265
		L10.174,35.463z"/>
	<path fill="#FF0000" d="M12.673,35.193l-0.268,1.021c0.253,0.067,0.508,0.127,0.764,0.185c0.256,0.056,0.512,0.105,0.772,0.151
		l0.18-1.049c-0.244-0.042-0.486-0.089-0.727-0.14C13.151,35.31,12.911,35.255,12.673,35.193z"/>
	<path fill="#FF0000" d="M20.974,0.376c-0.257-0.054-0.515-0.101-0.774-0.144l-0.187,1.085c0.243,0.042,0.486,0.087,0.727,0.14
		L20.974,0.376z"/>
	<path fill="#FF0000" d="M17.854-0.004c-0.232-0.009-0.465-0.018-0.698-0.018c-0.03,0-0.059,0.002-0.088,0.002v1.082
		c0.248,0,0.494,0.008,0.739,0.019L17.854-0.004z"/>
	<path fill="#FF0000" d="M7.364,31.434l-0.662,0.89c0.197,0.147,0.399,0.29,0.603,0.429l0.624-0.917
		C7.738,31.705,7.549,31.571,7.364,31.434z"/>
	<path fill="#FF0000" d="M14.309,34.408l-0.188,1.094c0.243,0.04,0.487,0.076,0.732,0.108l0.142-1.101
		C14.766,34.479,14.537,34.446,14.309,34.408z"/>
	<path fill="#FF0000" d="M19.28,1.208c-0.243-0.031-0.488-0.058-0.734-0.079l-0.094,1.104c0.23,0.02,0.459,0.045,0.688,0.075
		L19.28,1.208z"/>
	<path fill="#FF0000" d="M22.501,3.108l0.37-1.045l0.373-1.051c-0.246-0.086-0.495-0.169-0.747-0.245
		c-0.251-0.075-0.503-0.148-0.757-0.214l-0.282,1.074c0.239,0.063,0.477,0.13,0.712,0.201l-0.327,1.061
		C22.065,2.957,22.283,3.031,22.501,3.108z"/>
	<path fill="#FF0000" d="M7.473,30.201c-0.168-0.136-0.333-0.278-0.494-0.422l-0.688,0.776c0.173,0.154,0.348,0.306,0.528,0.451
		L7.473,30.201z"/>
	<path fill="#FF0000" d="M8.51,32.212c0.196,0.122,0.397,0.238,0.599,0.353l0.508-0.906c-0.188-0.106-0.376-0.215-0.559-0.328
		L8.51,32.212z"/>
	<path fill="#FF0000" d="M6.046,28.879l-0.751,0.715c0.159,0.167,0.321,0.332,0.487,0.491l0.722-0.746
		C6.348,29.188,6.196,29.034,6.046,28.879z"/>
	<path fill="#FF0000" d="M14.309,34.408l0.177-1.023c-0.213-0.036-0.426-0.077-0.638-0.121l-0.219,1.015
		C13.854,34.326,14.082,34.369,14.309,34.408z"/>
	<path fill="#FF0000" d="M13.216,33.115c-0.209-0.056-0.417-0.114-0.623-0.178l-0.306,0.993c-0.221-0.068-0.44-0.144-0.658-0.22
		l-0.371,1.046c0.232,0.081,0.466,0.161,0.703,0.234c0.235,0.072,0.473,0.14,0.712,0.202l0.281-1.073L13.216,33.115z"/>
	<path fill="#FF0000" d="M20.914,3.703c0.21,0.055,0.418,0.114,0.623,0.177l0.306-0.992c-0.22-0.068-0.441-0.13-0.665-0.189
		L20.914,3.703z"/>
	<path fill="#FF0000" d="M19.648,3.432l0.176-1.022c-0.228-0.039-0.455-0.073-0.685-0.102l-0.133,1.029
		C19.222,3.364,19.436,3.395,19.648,3.432z"/>
	<path fill="#FF0000" d="M9.059,30.173l-0.546,0.805c0.179,0.122,0.36,0.238,0.545,0.353l0.511-0.827
		C9.396,30.396,9.227,30.287,9.059,30.173z"/>
	<path fill="#FF0000" d="M5.191,27.902c0.136,0.169,0.275,0.333,0.418,0.497l0.731-0.639c-0.133-0.153-0.263-0.307-0.39-0.466
		L5.191,27.902z"/>
	<path fill="#FF0000" d="M11.177,31.361c-0.186-0.085-0.367-0.173-0.548-0.264c-0.181-0.091-0.36-0.187-0.537-0.285l-0.475,0.846
		c0.188,0.105,0.378,0.208,0.572,0.306L9.72,32.89l-0.501,0.99c-0.221-0.112-0.439-0.228-0.654-0.35l-0.506,0.901
		c0.227,0.129,0.457,0.253,0.69,0.374c0.232,0.119,0.467,0.233,0.706,0.343l0.431-0.947l0.458-1.011
		c0.21,0.096,0.423,0.187,0.638,0.273l0.389-0.963c-0.202-0.079-0.4-0.166-0.597-0.256L11.177,31.361z"/>
	<path fill="#FF0000" d="M11.371,32.501c0.199,0.08,0.402,0.159,0.606,0.232l0.326-0.918c-0.192-0.067-0.38-0.14-0.569-0.215
		L11.371,32.501z"/>
	<path fill="#FF0000" d="M22.152,4.087l-0.324,0.916c0.19,0.067,0.379,0.141,0.565,0.216l0.364-0.9
		C22.558,4.237,22.356,4.16,22.152,4.087z"/>
	<path fill="#FF0000" d="M20.078,4.505c0.198,0.042,0.396,0.088,0.59,0.139l0.246-0.94c-0.208-0.054-0.418-0.103-0.63-0.149
		L20.078,4.505z"/>
	<path fill="#FF0000" d="M9.108,29.093l-0.543,0.729c0.162,0.121,0.327,0.238,0.495,0.352l0.512-0.751
		C9.414,29.314,9.259,29.206,9.108,29.093z"/>
	<path fill="#FF0000" d="M5.986,25.811c-0.105-0.156-0.208-0.316-0.307-0.478l-0.777,0.473c0.106,0.173,0.215,0.344,0.328,0.512
		L5.986,25.811z"/>
	<path fill="#FF0000" d="M7.178,28.64c0.146,0.142,0.294,0.279,0.446,0.414l0.603-0.682c-0.142-0.126-0.28-0.254-0.417-0.387
		L7.178,28.64z"/>
	<path fill="#FF0000" d="M12.076,30.758c-0.177-0.072-0.351-0.146-0.523-0.226l-0.376,0.829c0.184,0.082,0.37,0.163,0.557,0.239
		L12.076,30.758z"/>
	<path fill="#FF0000" d="M18.884,4.3l-0.117,0.903c0.188,0.024,0.375,0.052,0.562,0.083l0.153-0.896
		C19.284,4.356,19.085,4.326,18.884,4.3z"/>
	<path fill="#FF0000" d="M17.674,4.195l-0.039,0.908c0.19,0.008,0.378,0.022,0.567,0.038l0.076-0.906
		C18.079,4.218,17.878,4.203,17.674,4.195z"/>
	<path fill="#FF0000" d="M10.539,30.019l0.417-0.742c-0.154-0.087-0.308-0.176-0.458-0.27c-0.151-0.094-0.3-0.189-0.446-0.289
		l-0.48,0.704c0.156,0.106,0.316,0.208,0.478,0.309C10.21,29.83,10.373,29.926,10.539,30.019z"/>
	<path fill="#FF0000" d="M7.026,27.163l0.641-0.56c-0.116-0.134-0.23-0.27-0.341-0.409l-0.665,0.533
		C6.78,26.875,6.901,27.02,7.026,27.163z"/>
	<path fill="#FF0000" d="M18.129,5.99c0.178,0.014,0.354,0.033,0.529,0.056l0.109-0.844c-0.188-0.024-0.375-0.045-0.565-0.062
		L18.129,5.99z"/>
	<path fill="#FF0000" d="M9.616,28.409l0.476-0.64c-0.133-0.1-0.264-0.201-0.392-0.307l-0.503,0.618
		C9.334,28.193,9.473,28.303,9.616,28.409z"/>
	<path fill="#FF0000" d="M7.644,25.302l-0.642,0.472c0.104,0.143,0.212,0.283,0.325,0.421l0.622-0.497
		C7.843,25.567,7.741,25.437,7.644,25.302z"/>
	<path fill="#FF0000" d="M12.235,29.032c-0.151-0.069-0.301-0.142-0.45-0.216l-0.36,0.711c0.158,0.081,0.318,0.157,0.479,0.23
		c0.162,0.073,0.325,0.145,0.49,0.209l0.299-0.738C12.539,29.166,12.385,29.101,12.235,29.032z"/>
	<path fill="#FF0000" d="M14.427,30.593l0.168-0.78c-0.163-0.035-0.325-0.071-0.485-0.114c-0.162-0.041-0.321-0.086-0.479-0.135
		l-0.235,0.762c-0.17-0.053-0.338-0.109-0.504-0.168c-0.168-0.06-0.334-0.124-0.498-0.19l-0.319,0.791
		c0.175,0.07,0.353,0.139,0.531,0.201l-0.304,0.856c0.19,0.067,0.382,0.134,0.576,0.193l0.267-0.869
		c0.181,0.055,0.364,0.107,0.548,0.155l0.215-0.824C14.08,30.515,14.253,30.554,14.427,30.593z"/>
	<path fill="#FF0000" d="M17.601,5.954c-0.177-0.007-0.354-0.013-0.532-0.013v0.797c0.167,0,0.333,0.005,0.498,0.012L17.601,5.954z"
		/>
	<path fill="#FF0000" d="M10.498,28.06l0.419-0.618c-0.128-0.087-0.255-0.177-0.379-0.27l-0.446,0.598
		C10.225,27.87,10.361,27.966,10.498,28.06z"/>
	<path fill="#FF0000" d="M10.917,28.329c0.141,0.088,0.285,0.172,0.429,0.254l0.367-0.651c-0.137-0.077-0.271-0.154-0.402-0.236
		L10.917,28.329z"/>
	<path fill="#FF0000" d="M13.631,29.563l0.219-0.713c0.148,0.045,0.298,0.088,0.448,0.128c0.151,0.038,0.303,0.073,0.455,0.105
		l0.232-1.067c-0.138-0.031-0.273-0.063-0.408-0.101c-0.136-0.036-0.271-0.075-0.403-0.117c-0.133-0.042-0.266-0.087-0.397-0.134
		l-0.37,1.038c-0.146-0.052-0.291-0.107-0.435-0.166l-0.279,0.691c0.153,0.062,0.308,0.122,0.465,0.177
		C13.314,29.462,13.472,29.515,13.631,29.563z"/>
	<path fill="#FF0000" d="M20.021,7.119c-0.159-0.042-0.32-0.079-0.483-0.114l0.169-0.779l0.18-0.832
		c-0.185-0.041-0.371-0.075-0.557-0.107l-0.145,0.839L19.048,6.91c-0.163-0.027-0.327-0.052-0.491-0.074l-0.096,0.741
		c0.155,0.019,0.309,0.042,0.461,0.068l-0.179,1.036c0.138,0.022,0.278,0.046,0.414,0.075l0.222-1.024
		c0.152,0.034,0.303,0.068,0.453,0.107c0.149,0.039,0.299,0.081,0.447,0.127L20.5,7.255C20.342,7.206,20.183,7.161,20.021,7.119z"/>
	<path fill="#FF0000" d="M10.538,27.172l0.674-0.907c-0.11-0.084-0.221-0.17-0.328-0.259c-0.108-0.089-0.212-0.181-0.316-0.274
		l-0.752,0.85L9.32,27.139c0.125,0.111,0.25,0.22,0.38,0.324l0.471-0.579C10.291,26.981,10.413,27.078,10.538,27.172z"/>
	<path fill="#FF0000" d="M9.174,24.181c-0.082-0.111-0.161-0.227-0.238-0.341l-0.959,0.64c0.086,0.13,0.176,0.257,0.269,0.383
		L9.174,24.181z"/>
	<path fill="#FF0000" d="M13.003,27.343c-0.126-0.061-0.251-0.121-0.375-0.187c-0.124-0.064-0.247-0.131-0.368-0.201l-0.548,0.977
		c0.135,0.076,0.272,0.148,0.411,0.219c0.138,0.07,0.278,0.139,0.421,0.203c0.141,0.063,0.283,0.126,0.428,0.184l0.414-1.025
		C13.257,27.457,13.13,27.4,13.003,27.343z"/>
	<path fill="#FF0000" d="M17.908,8.584c0.139,0.011,0.28,0.023,0.418,0.04l0.134-1.047c-0.152-0.02-0.307-0.038-0.463-0.05
		L17.908,8.584z"/>
	<path fill="#FF0000" d="M19.973,8.964c0.136,0.04,0.269,0.083,0.401,0.129l0.348-0.978c-0.146-0.052-0.292-0.102-0.442-0.148
		L19.973,8.964z"/>
</g>
</svg>
